<svg xmlns="http://www.w3.org/2000/svg" viewBox="0 0 400 370" width="400" height="370"><title>专注手艺人，原创探索角色</title><ellipse cx="203" cy="343" rx="149" ry="13" fill="#bf7950" opacity=".1"/><circle cx="198" cy="184" r="149" fill="#fbede0"/><path d="M210 274L171 295 186 332M249 271L290 290 295 327" fill="none" stroke="#344e53" stroke-width="27" stroke-linejoin="round" stroke-linecap="round"/><path d="M210 182L261 189 265 273 198 287 169 241Z" fill="#bf7950"/><path d="M254 185L274 236 258 270 284 275 290 254Z" fill="#182f3c" opacity=".15"/><g transform="rotate(-22 100 170)"><path d="M75 260L85 135Q30 111 62 60L84 97 113 92 130 49Q166 107 119 133L112 263Z" fill="#e5c269" stroke="#b09249" stroke-width="4"/><path d="M91 148L93 240" stroke="#fff5bd" stroke-width="8" stroke-linecap="round"/></g><path d="M140 256L195 219 244 247 188 290Z" fill="#bf7950"/><path d="M215 207L171 246 133 221" fill="none" stroke="#bf7950" stroke-width="26" stroke-linecap="round"/><circle cx="133" cy="221" r="15" fill="#a87359"/><path d="M260 190L309 166 325 118" fill="none" stroke="#bf7950" stroke-width="24" stroke-linecap="round"/><circle cx="325" cy="111" r="16" fill="#a87359"/><g transform="translate(224 148) rotate(15)"><path d="M-12 26L-13 54 12 61 19 23Z" fill="#a87359"/><ellipse cy="0" rx="38" ry="44" fill="#a87359"/><path d="M-36 8Q-55-51-2-54Q40-55 40-12L18-24-5-15-25-23-27 8Z" fill="#654b4b"/><path d="M-24 1L-13-1M8-1L20 1" stroke="#344449" stroke-width="4" stroke-linecap="round"/><path d="M-10 19Q2 29 17 15" stroke="#8f5747" fill="none" stroke-width="4" stroke-linecap="round"/><path d="M-30-4H-7V11H-30ZM6-4H29V11H6ZM-7 2H6" stroke="#344449" stroke-width="3" fill="none"/></g><circle cx="41" cy="68" r="18" fill="none" stroke="#b1beb0" stroke-width="3"/><circle cx="41" cy="68" r="7" fill="#b1beb0"/></svg>