<svg xmlns="http://www.w3.org/2000/svg" viewBox="0 0 400 370" width="400" height="370"><title>线索联络员，原创探索角色</title><ellipse cx="203" cy="343" rx="149" ry="13" fill="#36857d" opacity=".1"/><circle cx="198" cy="184" r="149" fill="#e7f2eb"/><path d="M224 255L188 303 151 286M270 250L300 293 335 305" fill="none" stroke="#344e53" stroke-width="27" stroke-linejoin="round" stroke-linecap="round"/><path d="M214 164L265 164 290 255 211 267 183 220Z" fill="#36857d"/><path d="M254 185L274 236 258 270 284 275 290 254Z" fill="#182f3c" opacity=".15"/><g transform="rotate(-20 110 185)"><circle cx="110" cy="153" r="63" fill="#cbe5d8" stroke="#36857d" stroke-width="14"/><path d="M92 209L75 284" stroke="#304c47" stroke-width="24" stroke-linecap="round"/><path d="M76 141Q102 102 142 120" fill="none" stroke="#fff" stroke-width="10" stroke-linecap="round"/><path d="M97 176Q85 132 130 138Q139 170 97 176" fill="#72ab8d"/></g><path d="M218 183L163 174 132 129" fill="none" stroke="#36857d" stroke-width="26" stroke-linecap="round"/><circle cx="132" cy="129" r="15" fill="#eec39d"/><path d="M260 190L309 166 325 118" fill="none" stroke="#36857d" stroke-width="24" stroke-linecap="round"/><circle cx="325" cy="111" r="16" fill="#eec39d"/><g transform="translate(236 119) rotate(-8)"><path d="M-12 26L-13 54 12 61 19 23Z" fill="#eec39d"/><ellipse cy="0" rx="38" ry="44" fill="#eec39d"/><path d="M-36 8Q-55-51-2-54Q40-55 40-12L18-24-5-15-25-23-27 8Z" fill="#35424b"/><circle cx="28" cy="-45" r="21" fill="#35424b"/><path d="M-24 1L-13-1M8-1L20 1" stroke="#344449" stroke-width="4" stroke-linecap="round"/><path d="M-10 19Q2 29 17 15" stroke="#8f5747" fill="none" stroke-width="4" stroke-linecap="round"/></g><g transform="translate(36 278)"><path d="M0 0Q0-15 15-15H69Q84-15 84 0V26Q84 40 70 40H34L15 56V40H15Q0 40 0 26Z" fill="#36857d"/><circle cx="23" cy="12" r="4" fill="white"/><circle cx="42" cy="12" r="4" fill="white"/><circle cx="61" cy="12" r="4" fill="white"/></g><path d="M31 60L37 44 43 60 59 66 43 72 37 88 31 72 15 66Z" fill="#d2b66c"/></svg>