<svg xmlns="http://www.w3.org/2000/svg" width="400" height="400" viewBox="0 0 400 400"><title>原创几何科学家插画</title><circle cx="200" cy="192" r="155" fill="#e2e8f0"/><path d="M99 354L110 246 155 210 222 210 278 243 306 354Z" fill="#657b9f"/><path d="M194 220L217 213 278 246 306 354 218 354Z" fill="#172f3c" opacity=".18"/><path d="M174 181L173 221 196 245 217 216 212 178Z" fill="#d9a382"/><path d="M147 118L165 91 212 86 237 116 232 168 211 199 178 204 154 174Z" fill="#edc4a2"/><path d="M206 105L237 119 232 167 211 196 194 194 211 159Z" fill="#dca888"/><path d="M146 118L158 82 203 68 238 95 243 143 222 113Z" fill="#ddd8c9"/><path d="M166 144L177 144M210 142L221 142" stroke="#39434a" stroke-width="4" stroke-linecap="round"/><path d="M197 146L192 166 203 165" stroke="#bf8c70" stroke-width="3" fill="none"/><path d="M182 177Q197 184 211 175" stroke="#a16b57" stroke-width="3" fill="none"/><path d="M154 149L181 168 208 162 232 145 226 204 191 233 162 201Z" fill="#e7e1d3"/><path d="M190 181L207 170 225 166 211 210 191 230Z" fill="#c9c6bb"/><path d="M168 216L193 244 173 261 154 225M217 213L194 244 214 258 237 226" fill="#f4f0e4"/><path d="M116 264L83 300 99 326 171 296 161 277Z" fill="#657b9f"/><path d="M65 262L149 216 162 241 79 287Z" fill="#dab572"/><path d="M70 260L85 286M140 221L155 247" stroke="#8d704c" stroke-width="9"/><path d="M115 266L104 320M115 266L139 320" stroke="#42596f" stroke-width="6"/><path d="M154 277L172 268 185 280 169 297 151 298Z" fill="#edc4a2"/><path d="M257 261L278 294 237 319 217 303 246 288Z" fill="#657b9f"/><path d="M219 298L201 294 192 308 216 320 232 316Z" fill="#edc4a2"/><path d="M306 352L96 352" stroke="#243f3b" stroke-opacity=".15" stroke-width="5"/></svg>